<svg version="1.1" id="Layer_1" xmlns="http://www.w3.org/2000/svg" xmlns:xlink="http://www.w3.org/1999/xlink" x="0px" y="0px"
	 width="100%" viewBox="0 0 496 496" enable-background="new 0 0 496 496" xml:space="preserve">
<path fill="#000000" opacity="1.000000" stroke="none" 
	d="
M104.948318,232.346649 
	C103.137985,232.340378 101.798347,232.241394 100.475197,232.347717 
	C97.156723,232.614380 95.657700,231.344513 95.584137,227.822113 
	C95.480171,222.844101 94.932892,217.872528 94.497002,212.905045 
	C94.062828,207.957092 93.532204,203.017609 92.266731,197.910385 
	C88.854942,207.675674 85.354599,217.411423 82.079666,227.222397 
	C80.942368,230.629501 79.346596,232.551132 75.370598,232.348572 
	C72.265709,232.190399 70.569122,231.231918 69.542969,228.177307 
	C66.156769,218.097412 62.506973,208.106049 58.656128,197.226791 
	C56.884575,204.572327 57.376957,211.318848 56.362663,217.878113 
	C56.186104,219.019913 56.315701,220.206512 56.265568,221.370773 
	C55.800842,232.163269 54.096798,233.522430 43.214092,232.352432 
	C40.619560,232.073502 39.692970,230.970840 39.922958,228.519150 
	C41.396660,212.809280 42.853909,197.097855 44.322048,181.387451 
	C44.399338,180.560379 44.564724,179.740738 44.624699,178.912979 
	C45.466999,167.288010 47.577412,165.750641 59.393616,167.709229 
	C61.900589,168.124756 62.564423,169.811523 63.286407,171.678284 
	C66.587036,180.212265 69.871841,188.752365 73.167107,197.288437 
	C73.757736,198.818420 74.092247,200.488724 75.519371,201.707382 
	C77.343163,200.702332 77.432999,198.719360 78.054993,197.131989 
	C81.332939,188.766403 84.577225,180.385773 87.671120,171.950928 
	C88.707794,169.124649 90.131607,167.687057 93.409454,167.613464 
	C104.942963,167.354538 105.194885,167.205902 106.497322,178.933624 
	C108.293533,195.107697 109.582298,211.337555 111.254684,227.526352 
	C111.762672,232.443665 108.876106,232.569427 104.948318,232.346649 
z"/>
<path fill="#000000" opacity="1.000000" stroke="none" 
	d="
M233.684235,172.097626 
	C234.068451,169.453186 232.512772,166.265076 235.326202,165.394730 
	C239.105515,164.225525 243.241516,164.247986 247.108521,165.498901 
	C248.541183,165.962372 248.320770,167.735306 248.321472,169.046402 
	C248.332031,188.707672 248.280884,208.369080 248.356873,228.030045 
	C248.369385,231.268448 247.119141,232.683167 243.923477,232.322571 
	C240.122955,231.893692 235.890381,233.747864 232.743759,230.170380 
	C222.305450,235.990707 211.915329,233.676865 206.306122,226.892014 
	C199.686142,218.884521 199.277832,206.992203 205.402512,198.599457 
	C211.342682,190.459549 220.522980,188.809952 233.684357,194.051178 
	C233.684357,186.675873 233.684357,179.630310 233.684235,172.097626 
M229.269989,220.007172 
	C233.856110,217.507278 234.706772,213.376648 233.309128,208.948593 
	C232.103302,205.128311 228.831253,203.162857 224.798798,203.458054 
	C220.310852,203.786606 217.610229,206.512405 216.703796,210.908752 
	C215.395081,217.256256 220.576889,221.358139 229.269989,220.007172 
z"/>
<path fill="#000000" opacity="1.000000" stroke="none" 
	d="
M386.417480,230.885605 
	C377.753784,224.159286 374.683899,215.134796 377.534393,205.542862 
	C381.221802,193.134750 393.289062,187.421509 405.197937,192.455795 
	C406.920746,193.184082 408.045349,193.944275 410.397247,192.532547 
	C413.751953,190.518829 418.172180,191.530151 422.093231,192.047195 
	C424.128204,192.315536 424.106628,194.466660 424.112122,196.122971 
	C424.147491,206.770065 424.082764,217.417740 424.170410,228.064255 
	C424.197174,231.319244 422.755066,232.712585 419.631989,232.321732 
	C415.895966,231.854156 411.604797,234.001663 408.518341,229.893082 
	C401.486328,234.189514 394.224426,234.907455 386.417480,230.885605 
M399.112030,203.583435 
	C393.586090,206.036804 391.592773,208.952698 392.402924,213.732742 
	C393.050812,217.555374 395.281219,220.030930 399.205444,220.640564 
	C404.475220,221.459213 408.917297,218.114883 409.544464,212.973526 
	C410.160553,207.923126 406.175903,204.008438 399.112030,203.583435 
z"/>
<path fill="#000000" opacity="1.000000" stroke="none" 
	d="
M171.211975,229.412720 
	C159.977600,235.670975 148.031342,234.780884 140.371658,227.353119 
	C133.326187,220.520905 131.725159,210.673721 136.283157,202.206436 
	C140.915924,193.600281 151.614197,188.907074 161.417419,191.180313 
	C171.690994,193.562622 177.061539,200.062088 177.741943,210.435593 
	C177.963501,213.813278 176.370773,214.390900 173.626465,214.369904 
	C166.975601,214.319000 160.323761,214.345123 153.672791,214.398315 
	C152.242294,214.409744 150.360992,213.990005 149.807083,215.818604 
	C149.252151,217.650589 150.596741,219.012589 151.986008,219.942184 
	C155.858551,222.533371 159.774979,222.315369 163.638687,219.800491 
	C166.592010,217.878189 174.151382,219.348267 175.911636,222.159225 
	C176.668457,223.367767 176.214905,224.429108 175.387787,225.323456 
	C174.149094,226.662811 172.811234,227.910477 171.211975,229.412720 
M151.843109,205.726807 
	C155.322159,205.538437 158.959106,206.649124 162.389664,204.757233 
	C160.443054,201.854263 158.953522,200.720718 156.999237,200.513657 
	C153.320892,200.123917 150.701035,202.423111 151.843109,205.726807 
z"/>
<path fill="#000000" opacity="1.000000" stroke="none" 
	d="
M457.118469,232.326965 
	C453.537445,232.575699 452.649719,230.936996 452.657806,228.086624 
	C452.713470,208.451797 452.712280,188.816666 452.654663,169.181839 
	C452.646240,166.307022 453.691071,165.036407 456.671509,164.794113 
	C467.059845,163.949570 467.340820,164.122406 467.341187,174.447357 
	C467.341736,191.087234 467.340515,207.727097 467.333466,224.366974 
	C467.330109,232.356125 467.323303,232.356216 459.094391,232.340836 
	C458.595184,232.339905 458.096008,232.336166 457.118469,232.326965 
z"/>
<path fill="#000000" opacity="1.000000" stroke="none" 
	d="
M319.758698,204.133835 
	C326.416504,192.419601 337.082031,188.043457 349.008972,192.056198 
	C351.080566,192.753159 354.916656,193.245346 353.130127,196.742401 
	C351.695953,199.549713 352.298615,205.132584 346.056122,203.542206 
	C342.251404,202.572891 338.316956,202.800919 335.692902,206.469757 
	C333.665863,209.303848 332.787079,212.381836 334.396484,215.817841 
	C336.462555,220.228867 340.439850,222.102264 345.481445,220.908325 
	C349.611969,219.930145 352.086761,222.083939 353.403748,227.798584 
	C354.301270,231.693161 350.998169,231.632889 348.884918,232.289078 
	C334.513275,236.751556 320.994934,229.117310 318.245178,215.199890 
	C317.499939,211.427887 318.413788,207.967239 319.758698,204.133835 
z"/>
<path fill="#000000" opacity="1.000000" stroke="none" 
	d="
M276.945129,219.979401 
	C276.940674,212.160431 277.087494,204.832626 276.871674,197.515533 
	C276.748047,193.325302 278.041534,191.555237 282.549286,191.623032 
	C292.026917,191.765610 292.039337,191.550751 292.047058,201.160004 
	C292.053864,209.648346 291.876953,218.140900 292.098206,226.623322 
	C292.209167,230.876129 290.868622,232.579910 286.399139,232.427567 
	C275.505951,232.056259 277.067627,233.560349 276.945129,219.979401 
z"/>
<path fill="#000000" opacity="1.000000" stroke="none" 
	d="
M285.790497,167.680084 
	C291.272705,169.468704 293.771179,172.782166 293.215576,176.998322 
	C292.654297,181.257446 289.030243,184.343689 284.610962,184.325989 
	C280.391693,184.309082 277.078308,181.504288 276.300934,177.291519 
	C275.330780,172.034180 279.074890,168.057480 285.790497,167.680084 
z"/>
<path fill="#000000" opacity="1.000000" stroke="none" 
	d="
M215.712463,259.899048 
	C216.674393,252.661240 221.493927,248.697708 227.545044,249.820053 
	C229.150787,250.117874 231.141724,250.388397 230.974106,252.615540 
	C230.817123,254.701294 229.349503,255.125565 227.346420,254.793015 
	C224.097672,254.253708 221.547134,255.439651 221.337662,258.988739 
	C221.095352,263.094788 223.960938,263.925812 227.353989,263.595825 
	C229.248123,263.411652 230.848557,263.751038 230.980499,265.901703 
	C231.102234,267.885254 229.331940,268.083221 227.865768,268.415131 
	C222.176224,269.703186 217.594116,266.647614 215.712463,259.899048 
z"/>
<path fill="#000000" opacity="1.000000" stroke="none" 
	d="
M248.180023,268.277130 
	C246.265488,268.391388 244.772980,268.622498 243.295456,268.549683 
	C239.784836,268.376831 237.774689,266.513611 237.659119,262.929474 
	C237.540176,259.239899 239.113129,256.561157 243.048615,256.754120 
	C245.732224,256.885742 249.904556,254.967636 250.782089,258.815918 
	C251.453094,261.758514 253.482178,266.126801 248.180023,268.277130 
z"/>
<path fill="#000000" opacity="1.000000" stroke="none" 
	d="
M285.511475,263.246826 
	C286.342712,267.460510 283.842834,268.395386 280.758270,268.616699 
	C276.958038,268.889343 273.815857,266.047974 273.798920,262.501404 
	C273.782104,258.980835 277.029724,255.937576 280.757294,256.418365 
	C284.422760,256.891144 287.169281,258.473083 285.511475,263.246826 
z"/>
<path fill="#000000" opacity="1.000000" stroke="none" 
	d="
M266.470398,256.647461 
	C269.133484,258.174011 268.111145,260.118103 266.521515,260.366394 
	C263.163269,260.890961 263.201447,262.978302 263.164307,265.375885 
	C263.137482,267.104919 262.412964,268.257141 260.476410,268.161255 
	C258.729279,268.074707 258.481018,266.744843 258.202545,265.401794 
	C256.779938,258.541168 258.232971,256.908356 266.470398,256.647461 
z"/>
</svg>