<svg version="1.1" id="Layer_1" xmlns="http://www.w3.org/2000/svg" xmlns:xlink="http://www.w3.org/1999/xlink" x="0px" y="0px"
	 width="100%" viewBox="0 0 439 116" enable-background="new 0 0 439 116" xml:space="preserve">
<path fill="#000000" opacity="1.000000" stroke="none" 
	d="
M291.000000,117.000000 
	C194.000015,117.000000 97.500023,117.000000 1.000026,117.000000 
	C1.000017,78.333351 1.000017,39.666698 1.000009,1.000036 
	C147.333298,1.000024 293.666595,1.000024 439.999939,1.000012 
	C439.999939,39.666630 439.999939,78.333260 439.999969,116.999939 
	C390.500000,117.000000 341.000000,117.000000 291.000000,117.000000 
M75.785110,67.651970 
	C74.476097,52.916752 73.462807,38.147484 71.771126,23.456329 
	C70.219475,9.981230 72.692551,11.018981 59.253288,10.967864 
	C55.741081,10.954506 53.813007,12.305224 52.611828,15.648602 
	C49.742813,23.634218 46.573898,31.512720 43.479721,39.416325 
	C42.787445,41.184628 41.904892,42.878441 40.746029,45.397636 
	C39.767094,43.704193 39.189526,42.945671 38.856422,42.091785 
	C35.356007,33.118774 31.913040,24.123358 28.414362,15.149665 
	C26.796581,11.000256 13.653007,8.963904 10.977725,12.480599 
	C10.423329,13.209361 10.237389,14.324759 10.149632,15.286420 
	C8.503251,33.327824 6.856294,51.369522 5.359124,69.423569 
	C5.236415,70.903275 5.999347,73.690292 6.677364,73.797127 
	C10.365712,74.378296 14.318393,74.983490 17.834553,74.139999 
	C19.293808,73.789932 20.506813,69.934914 20.776968,67.554100 
	C21.727369,59.178463 22.219913,50.750866 22.886196,42.342987 
	C24.796434,43.881374 25.719830,45.569950 26.355711,47.360622 
	C29.083101,55.041054 31.475121,62.854744 34.572559,70.379822 
	C35.364990,72.305000 38.099117,74.003120 40.282505,74.645653 
	C43.338257,75.544907 45.706951,73.793472 46.765289,70.637337 
	C47.400074,68.744308 48.069965,66.862953 48.734226,64.979935 
	C51.423332,57.356972 54.116379,49.735397 56.807968,42.113312 
	C58.384029,44.916142 58.838947,47.607620 59.072643,50.318180 
	C59.615162,56.610645 59.841656,62.937393 60.592777,69.202713 
	C61.252853,74.708565 62.583881,75.130882 70.473099,74.957397 
	C75.077950,74.856140 76.206627,72.480125 75.785110,67.651970 
M169.299240,67.064156 
	C174.771927,75.298264 185.110626,79.644485 195.520309,74.191399 
	C196.527573,73.663750 197.975357,73.792137 199.195755,73.893051 
	C202.135620,74.136124 205.054153,74.689240 207.995743,74.845757 
	C211.261124,75.019501 212.905289,73.275948 212.906036,69.978371 
	C212.910324,50.829235 212.921265,31.680098 212.941010,12.530972 
	C212.945953,7.730031 209.515244,7.969646 206.293045,8.024798 
	C203.042694,8.080434 199.154419,7.313607 199.078644,12.485232 
	C199.005478,17.479694 199.026443,22.475582 199.013489,27.470863 
	C199.005676,30.483864 199.012054,33.496902 199.012054,36.847775 
	C188.507278,33.633511 183.317062,33.288898 178.836426,35.205742 
	C167.004318,40.267582 162.829483,53.433834 169.299240,67.064156 
M369.861847,35.119034 
	C365.256561,34.959171 360.430817,33.835346 356.089111,34.828190 
	C345.023285,37.358685 339.196350,50.412201 342.939697,62.732559 
	C346.231812,73.567780 357.325806,78.982521 368.488007,75.067154 
	C371.293915,74.082932 373.807770,72.645195 376.878906,74.594574 
	C377.978882,75.292763 379.807251,74.903061 381.303436,74.907242 
	C388.207581,74.926544 388.830261,74.350327 388.867584,67.610062 
	C388.915588,58.944817 388.920532,50.279091 388.892731,41.613743 
	C388.873535,35.625252 388.305664,35.039593 382.255981,35.024414 
	C378.371796,35.014668 374.487091,35.210991 369.861847,35.119034 
M132.807312,36.526306 
	C128.618301,35.693283 124.439621,34.221870 120.238243,34.153946 
	C110.024597,33.988815 101.489639,41.185181 99.436081,50.936893 
	C97.422646,60.498096 102.502274,70.409042 111.461533,74.399956 
	C120.814911,78.566429 134.348892,76.089668 139.522980,69.142815 
	C140.215012,68.213669 140.836319,66.594368 140.496628,65.653397 
	C139.462906,62.789749 132.073517,61.313667 129.207962,62.304359 
	C125.979660,63.420471 122.369263,63.912182 118.958710,63.783535 
	C117.596352,63.732151 116.323914,61.296909 115.010544,59.946815 
	C116.662010,59.215233 118.287605,57.933769 119.969757,57.854649 
	C125.117943,57.612503 130.288345,57.896149 135.449203,57.856659 
	C142.298752,57.804256 143.364395,56.322075 142.059219,49.717827 
	C140.966415,44.188240 138.385208,39.789829 132.807312,36.526306 
M314.913391,64.584984 
	C312.545990,64.396858 310.181549,64.111130 307.810638,64.039780 
	C301.850586,63.860416 298.716858,60.476593 299.020538,54.415730 
	C299.282776,49.181332 303.355560,45.668659 308.731720,46.096798 
	C309.715302,46.175129 310.675446,46.511387 311.656616,46.662189 
	C316.876068,47.464409 316.906219,42.812168 317.970123,39.936634 
	C318.343536,38.927250 315.930908,35.633335 314.508118,35.437859 
	C309.331299,34.726620 303.846832,33.925755 298.822083,34.911182 
	C287.640198,37.104122 280.620087,49.935604 283.997437,60.831760 
	C288.039459,73.872307 302.537140,79.883553 315.581818,74.629341 
	C316.755463,74.156616 317.489197,71.318596 317.484039,69.581856 
	C317.479584,68.103874 316.114746,66.629959 314.913391,64.584984 
M431.995239,14.701953 
	C431.679260,8.297946 431.179077,8.164740 423.943176,7.940116 
	C418.719269,7.777952 417.934326,10.406977 417.968597,14.722535 
	C418.109802,32.512100 418.006287,50.303600 418.145050,68.093201 
	C418.160675,70.097404 418.718048,73.517731 419.754150,73.825729 
	C422.790497,74.728287 426.328217,74.964577 429.390533,74.256058 
	C430.612701,73.973274 431.795563,70.540031 431.819672,68.526833 
	C432.030731,50.904819 431.975464,33.279617 431.995239,14.701953 
M242.059357,46.538353 
	C242.070724,54.027004 242.191071,61.517685 242.051437,69.003517 
	C241.971237,73.304008 243.889847,75.126495 248.064026,74.910706 
	C249.557983,74.833481 251.360977,75.390137 252.484360,74.734596 
	C254.190689,73.738869 256.619446,71.979347 256.671570,70.472641 
	C257.033844,60.001907 256.971039,49.510048 256.721069,39.032677 
	C256.689850,37.724651 254.982529,35.674469 253.674728,35.305752 
	C245.066360,32.878773 242.052536,35.268188 242.052948,44.057583 
	C242.052963,44.556828 242.055405,45.056072 242.059357,46.538353 
M257.622864,21.752806 
	C257.687134,20.271837 258.394287,18.265207 257.694336,17.409105 
	C255.645721,14.903527 253.289536,11.545088 250.571442,11.020510 
	C248.144714,10.552165 243.902069,12.742949 242.619812,14.991541 
	C241.335358,17.243992 241.712830,21.637568 243.153854,23.999254 
	C246.043411,28.734919 253.144165,27.672680 257.622864,21.752806 
M187.268906,93.364212 
	C182.242218,95.126823 180.420593,98.742195 181.200165,103.861641 
	C181.905899,108.496094 185.119095,110.843277 189.272247,111.402367 
	C191.126831,111.652039 193.235596,110.013680 195.229004,109.232201 
	C193.734497,108.407570 192.083862,107.773621 190.785049,106.710022 
	C189.162201,105.381058 187.282837,103.895592 186.626465,102.076385 
	C186.345123,101.296669 188.719208,99.308708 190.155121,98.225380 
	C191.801926,96.982948 193.746490,96.135155 195.561691,95.115929 
	C193.385971,94.437607 191.214493,93.744972 189.029480,93.098038 
	C188.737335,93.011536 188.376724,93.156311 187.268906,93.364212 
M215.851013,106.304695 
	C216.643433,100.961426 213.090820,99.185104 209.048645,99.682503 
	C206.749405,99.965439 203.604187,102.530296 203.013733,104.667984 
	C202.534760,106.402046 204.786530,109.839691 206.741531,111.076729 
	C209.757721,112.985237 214.229218,110.588646 215.851013,106.304695 
M249.751816,109.936378 
	C250.070847,109.004341 250.767136,108.014069 250.634033,107.151833 
	C250.311188,105.060524 250.215439,102.313118 248.880646,101.169693 
	C247.481155,99.970840 244.321671,99.467712 242.708069,100.254135 
	C241.045868,101.064240 239.553146,103.712219 239.336090,105.703194 
	C238.798004,110.638870 243.793182,112.862907 249.751816,109.936378 
M231.270859,103.288368 
	C231.220551,102.083138 231.170227,100.877899 231.119919,99.672668 
	C228.781082,100.296310 225.745758,100.253250 224.315918,101.747002 
	C223.093307,103.024254 223.547440,106.069443 223.617325,108.321571 
	C223.638260,108.996223 224.841507,110.122421 225.537811,110.149498 
	C226.223587,110.176170 227.099472,109.177612 227.633423,108.441391 
	C228.748062,106.904503 229.692322,105.244026 231.270859,103.288368 
z"/>
<path fill="#2A2A29" opacity="1.000000" stroke="none" 
	d="
M75.807068,68.095047 
	C76.206627,72.480125 75.077950,74.856140 70.473099,74.957397 
	C62.583881,75.130882 61.252853,74.708565 60.592777,69.202713 
	C59.841656,62.937393 59.615162,56.610645 59.072643,50.318180 
	C58.838947,47.607620 58.384029,44.916142 56.807968,42.113312 
	C54.116379,49.735397 51.423332,57.356972 48.734226,64.979935 
	C48.069965,66.862953 47.400074,68.744308 46.765289,70.637337 
	C45.706951,73.793472 43.338257,75.544907 40.282505,74.645653 
	C38.099117,74.003120 35.364990,72.305000 34.572559,70.379822 
	C31.475121,62.854744 29.083101,55.041054 26.355711,47.360622 
	C25.719830,45.569950 24.796434,43.881374 22.886196,42.342987 
	C22.219913,50.750866 21.727369,59.178463 20.776968,67.554100 
	C20.506813,69.934914 19.293808,73.789932 17.834553,74.139999 
	C14.318393,74.983490 10.365712,74.378296 6.677364,73.797127 
	C5.999347,73.690292 5.236415,70.903275 5.359124,69.423569 
	C6.856294,51.369522 8.503251,33.327824 10.149632,15.286420 
	C10.237389,14.324759 10.423329,13.209361 10.977725,12.480599 
	C13.653007,8.963904 26.796581,11.000256 28.414362,15.149665 
	C31.913040,24.123358 35.356007,33.118774 38.856422,42.091785 
	C39.189526,42.945671 39.767094,43.704193 40.746029,45.397636 
	C41.904892,42.878441 42.787445,41.184628 43.479721,39.416325 
	C46.573898,31.512720 49.742813,23.634218 52.611828,15.648602 
	C53.813007,12.305224 55.741081,10.954506 59.253288,10.967864 
	C72.692551,11.018981 70.219475,9.981230 71.771126,23.456329 
	C73.462807,38.147484 74.476097,52.916752 75.807068,68.095047 
z"/>
<path fill="#2A2A29" opacity="1.000000" stroke="none" 
	d="
M169.120819,66.736465 
	C162.829483,53.433834 167.004318,40.267582 178.836426,35.205742 
	C183.317062,33.288898 188.507278,33.633511 199.012054,36.847775 
	C199.012054,33.496902 199.005676,30.483864 199.013489,27.470863 
	C199.026443,22.475582 199.005478,17.479694 199.078644,12.485232 
	C199.154419,7.313607 203.042694,8.080434 206.293045,8.024798 
	C209.515244,7.969646 212.945953,7.730031 212.941010,12.530972 
	C212.921265,31.680098 212.910324,50.829235 212.906036,69.978371 
	C212.905289,73.275948 211.261124,75.019501 207.995743,74.845757 
	C205.054153,74.689240 202.135620,74.136124 199.195755,73.893051 
	C197.975357,73.792137 196.527573,73.663750 195.520309,74.191399 
	C185.110626,79.644485 174.771927,75.298264 169.120819,66.736465 
M196.977066,60.356262 
	C199.853531,55.223827 199.304047,50.893688 195.414368,48.041313 
	C191.651733,45.282104 186.569641,46.098518 183.502838,49.954861 
	C181.038284,53.053898 181.532990,59.049965 184.481812,61.820385 
	C187.680664,64.825722 192.202774,64.483528 196.977066,60.356262 
z"/>
<path fill="#2A2A29" opacity="1.000000" stroke="none" 
	d="
M370.232239,35.216988 
	C374.487091,35.210991 378.371796,35.014668 382.255981,35.024414 
	C388.305664,35.039593 388.873535,35.625252 388.892731,41.613743 
	C388.920532,50.279091 388.915588,58.944817 388.867584,67.610062 
	C388.830261,74.350327 388.207581,74.926544 381.303436,74.907242 
	C379.807251,74.903061 377.978882,75.292763 376.878906,74.594574 
	C373.807770,72.645195 371.293915,74.082932 368.488007,75.067154 
	C357.325806,78.982521 346.231812,73.567780 342.939697,62.732559 
	C339.196350,50.412201 345.023285,37.358685 356.089111,34.828190 
	C360.430817,33.835346 365.256561,34.959171 370.232239,35.216988 
M357.494690,57.683975 
	C360.025940,65.359184 369.902435,65.581024 372.868408,60.211876 
	C374.663788,56.961735 375.474976,53.622501 372.717773,50.523178 
	C370.409546,47.928539 368.072632,45.072403 363.861755,46.719357 
	C359.200989,48.542294 356.300568,51.477886 357.494690,57.683975 
z"/>
<path fill="#292929" opacity="1.000000" stroke="none" 
	d="
M133.134827,36.709732 
	C138.385208,39.789829 140.966415,44.188240 142.059219,49.717827 
	C143.364395,56.322075 142.298752,57.804256 135.449203,57.856659 
	C130.288345,57.896149 125.117943,57.612503 119.969757,57.854649 
	C118.287605,57.933769 116.662010,59.215233 115.010544,59.946815 
	C116.323914,61.296909 117.596352,63.732151 118.958710,63.783535 
	C122.369263,63.912182 125.979660,63.420471 129.207962,62.304359 
	C132.073517,61.313667 139.462906,62.789749 140.496628,65.653397 
	C140.836319,66.594368 140.215012,68.213669 139.522980,69.142815 
	C134.348892,76.089668 120.814911,78.566429 111.461533,74.399956 
	C102.502274,70.409042 97.422646,60.498096 99.436081,50.936893 
	C101.489639,41.185181 110.024597,33.988815 120.238243,34.153946 
	C124.439621,34.221870 128.618301,35.693283 133.134827,36.709732 
M122.967438,44.115307 
	C121.821892,44.138031 120.527756,43.830433 119.566498,44.262836 
	C118.209793,44.873119 117.099335,46.030846 115.883606,46.954525 
	C117.194832,47.614719 118.467300,48.717030 119.825958,48.836128 
	C122.120407,49.037251 124.469429,48.615795 126.795509,48.456135 
	C126.924179,48.019146 127.052856,47.582153 127.181534,47.145164 
	C126.026009,46.182365 124.870491,45.219566 122.967438,44.115307 
z"/>
<path fill="#2A2A29" opacity="1.000000" stroke="none" 
	d="
M315.132568,64.869614 
	C316.114746,66.629959 317.479584,68.103874 317.484039,69.581856 
	C317.489197,71.318596 316.755463,74.156616 315.581818,74.629341 
	C302.537140,79.883553 288.039459,73.872307 283.997437,60.831760 
	C280.620087,49.935604 287.640198,37.104122 298.822083,34.911182 
	C303.846832,33.925755 309.331299,34.726620 314.508118,35.437859 
	C315.930908,35.633335 318.343536,38.927250 317.970123,39.936634 
	C316.906219,42.812168 316.876068,47.464409 311.656616,46.662189 
	C310.675446,46.511387 309.715302,46.175129 308.731720,46.096798 
	C303.355560,45.668659 299.282776,49.181332 299.020538,54.415730 
	C298.716858,60.476593 301.850586,63.860416 307.810638,64.039780 
	C310.181549,64.111130 312.545990,64.396858 315.132568,64.869614 
z"/>
<path fill="#2A2A29" opacity="1.000000" stroke="none" 
	d="
M431.997192,15.178656 
	C431.975464,33.279617 432.030731,50.904819 431.819672,68.526833 
	C431.795563,70.540031 430.612701,73.973274 429.390533,74.256058 
	C426.328217,74.964577 422.790497,74.728287 419.754150,73.825729 
	C418.718048,73.517731 418.160675,70.097404 418.145050,68.093201 
	C418.006287,50.303600 418.109802,32.512100 417.968597,14.722535 
	C417.934326,10.406977 418.719269,7.777952 423.943176,7.940116 
	C431.179077,8.164740 431.679260,8.297946 431.997192,15.178656 
z"/>
<path fill="#2A2A29" opacity="1.000000" stroke="none" 
	d="
M242.058044,46.046837 
	C242.055405,45.056072 242.052963,44.556828 242.052948,44.057583 
	C242.052536,35.268188 245.066360,32.878773 253.674728,35.305752 
	C254.982529,35.674469 256.689850,37.724651 256.721069,39.032677 
	C256.971039,49.510048 257.033844,60.001907 256.671570,70.472641 
	C256.619446,71.979347 254.190689,73.738869 252.484360,74.734596 
	C251.360977,75.390137 249.557983,74.833481 248.064026,74.910706 
	C243.889847,75.126495 241.971237,73.304008 242.051437,69.003517 
	C242.191071,61.517685 242.070724,54.027004 242.058044,46.046837 
z"/>
<path fill="#2A2A29" opacity="1.000000" stroke="none" 
	d="
M257.479614,22.117672 
	C253.144165,27.672680 246.043411,28.734919 243.153854,23.999254 
	C241.712830,21.637568 241.335358,17.243992 242.619812,14.991541 
	C243.902069,12.742949 248.144714,10.552165 250.571442,11.020510 
	C253.289536,11.545088 255.645721,14.903527 257.694336,17.409105 
	C258.394287,18.265207 257.687134,20.271837 257.479614,22.117672 
z"/>
<path fill="#232121" opacity="1.000000" stroke="none" 
	d="
M187.658356,93.279099 
	C188.376724,93.156311 188.737335,93.011536 189.029480,93.098038 
	C191.214493,93.744972 193.385971,94.437607 195.561691,95.115929 
	C193.746490,96.135155 191.801926,96.982948 190.155121,98.225380 
	C188.719208,99.308708 186.345123,101.296669 186.626465,102.076385 
	C187.282837,103.895592 189.162201,105.381058 190.785049,106.710022 
	C192.083862,107.773621 193.734497,108.407570 195.229004,109.232193 
	C193.235596,110.013680 191.126831,111.652039 189.272247,111.402367 
	C185.119095,110.843277 181.905899,108.496094 181.200165,103.861641 
	C180.420593,98.742195 182.242218,95.126823 187.658356,93.279099 
z"/>
<path fill="#232121" opacity="1.000000" stroke="none" 
	d="
M215.821411,106.710556 
	C214.229218,110.588646 209.757721,112.985237 206.741531,111.076729 
	C204.786530,109.839691 202.534760,106.402046 203.013733,104.667984 
	C203.604187,102.530296 206.749405,99.965439 209.048645,99.682503 
	C213.090820,99.185104 216.643433,100.961426 215.821411,106.710556 
z"/>
<path fill="#232121" opacity="1.000000" stroke="none" 
	d="
M249.524689,110.175102 
	C243.793182,112.862907 238.798004,110.638870 239.336090,105.703194 
	C239.553146,103.712219 241.045868,101.064240 242.708069,100.254135 
	C244.321671,99.467712 247.481155,99.970840 248.880646,101.169693 
	C250.215439,102.313118 250.311188,105.060524 250.634033,107.151833 
	C250.767136,108.014069 250.070847,109.004341 249.524689,110.175102 
z"/>
<path fill="#232121" opacity="1.000000" stroke="none" 
	d="
M230.988708,103.461349 
	C229.692322,105.244026 228.748062,106.904503 227.633423,108.441391 
	C227.099472,109.177612 226.223587,110.176170 225.537811,110.149498 
	C224.841507,110.122421 223.638260,108.996223 223.617325,108.321571 
	C223.547440,106.069443 223.093307,103.024254 224.315918,101.747002 
	C225.745758,100.253250 228.781082,100.296310 231.119919,99.672668 
	C231.170227,100.877899 231.220551,102.083138 230.988708,103.461349 
z"/>
<path fill="#000000" opacity="1.000000" stroke="none" 
	d="
M196.715637,60.635330 
	C192.202774,64.483528 187.680664,64.825722 184.481812,61.820385 
	C181.532990,59.049965 181.038284,53.053898 183.502838,49.954861 
	C186.569641,46.098518 191.651733,45.282104 195.414368,48.041313 
	C199.304047,50.893688 199.853531,55.223827 196.715637,60.635330 
z"/>
<path fill="#000000" opacity="1.000000" stroke="none" 
	d="
M357.387787,57.305466 
	C356.300568,51.477886 359.200989,48.542294 363.861755,46.719357 
	C368.072632,45.072403 370.409546,47.928539 372.717773,50.523178 
	C375.474976,53.622501 374.663788,56.961735 372.868408,60.211876 
	C369.902435,65.581024 360.025940,65.359184 357.387787,57.305466 
z"/>
<path fill="#000000" opacity="1.000000" stroke="none" 
	d="
M123.341202,44.186035 
	C124.870491,45.219566 126.026009,46.182365 127.181534,47.145164 
	C127.052856,47.582153 126.924179,48.019146 126.795509,48.456135 
	C124.469429,48.615795 122.120407,49.037251 119.825958,48.836128 
	C118.467300,48.717030 117.194832,47.614719 115.883606,46.954529 
	C117.099335,46.030846 118.209793,44.873119 119.566498,44.262836 
	C120.527756,43.830433 121.821892,44.138031 123.341202,44.186035 
z"/>
</svg>