<svg version="1.1" id="Layer_1" xmlns="http://www.w3.org/2000/svg" xmlns:xlink="http://www.w3.org/1999/xlink" x="0px" y="0px"
	 width="100%" viewBox="0 0 439 116" enable-background="new 0 0 439 116" xml:space="preserve">
<path fill="#E3E1DC" opacity="1.000000" stroke="none" 
	d="
M290.000000,117.000000 
	C193.333344,117.000000 97.166687,117.000000 1.000026,117.000000 
	C1.000017,78.333351 1.000017,39.666698 1.000009,1.000036 
	C147.333298,1.000024 293.666595,1.000024 439.999939,1.000012 
	C439.999939,39.666630 439.999939,78.333260 439.999969,116.999939 
	C390.166656,117.000000 340.333344,117.000000 290.000000,117.000000 
M37.228909,74.616608 
	C42.770245,75.655479 45.771572,73.950142 47.413635,67.939270 
	C50.091858,58.135475 54.001965,48.668205 57.392288,39.058941 
	C57.743187,39.098335 58.094082,39.137733 58.444981,39.177132 
	C59.424580,51.003654 60.404175,62.830181 61.392178,74.758171 
	C66.381958,74.758171 70.969925,74.758171 75.913040,74.758171 
	C73.994476,53.486568 72.101067,32.493843 70.173019,11.117197 
	C66.511078,11.117197 63.175117,11.416932 59.917099,11.041048 
	C55.877895,10.575035 54.136322,12.131182 52.796589,15.938190 
	C49.111961,26.408508 44.891766,36.690353 40.555351,47.894566 
	C36.105732,36.308582 32.079372,25.588699 27.808077,14.967316 
	C27.194780,13.442242 25.506134,11.452374 24.132370,11.297355 
	C19.886885,10.818283 15.553020,11.122415 10.959098,11.122415 
	C9.036222,32.540195 7.152137,53.525898 5.257186,74.632645 
	C10.353514,74.632645 15.071579,74.632645 19.773460,74.632645 
	C20.785234,62.454765 21.766064,50.649342 22.746895,38.843922 
	C23.021252,38.847404 23.295609,38.850887 23.569965,38.854370 
	C27.867228,50.684052 32.164490,62.513737 37.228909,74.616608 
M199.138931,15.635452 
	C199.138931,23.024124 199.138931,30.412794 199.138931,38.086353 
	C186.541626,32.088078 177.240326,33.428661 170.863190,41.775852 
	C164.958878,49.504154 164.864136,61.965237 171.445831,69.042847 
	C174.228302,72.034996 178.278198,74.500099 182.204544,75.624481 
	C188.112152,77.316223 193.952835,75.698212 198.746185,71.193893 
	C200.038620,75.406425 204.954620,76.285103 212.755371,74.264526 
	C212.755371,52.501381 212.755371,30.748699 212.755371,8.835697 
	C208.155640,8.835697 203.772705,8.835697 199.138931,8.835697 
	C199.138931,11.035699 199.138931,12.857464 199.138931,15.635452 
M374.911499,72.389908 
	C375.553864,73.259270 376.149170,74.833817 376.846375,74.880318 
	C380.583160,75.129570 384.345367,74.997993 388.099426,74.997993 
	C388.099426,61.450504 388.099426,48.534130 388.099426,34.931381 
	C383.273712,36.555874 377.915741,32.513821 373.829407,38.025612 
	C373.175507,37.649399 372.349365,37.148785 371.500732,36.689838 
	C363.965485,32.614697 355.250854,33.429482 349.150177,38.771320 
	C342.461670,44.627903 340.145081,54.740749 343.492493,63.469498 
	C346.559906,71.468109 353.481201,76.628143 361.968292,75.889473 
	C366.332428,75.509644 370.521698,73.120377 374.911499,72.389908 
M138.107376,41.484959 
	C130.673843,33.835930 119.773613,31.913750 110.787704,36.667320 
	C102.294685,41.160152 97.883659,50.097595 99.703629,59.125420 
	C101.547226,68.270378 109.588074,75.371536 118.836349,76.022171 
	C129.723114,76.788086 138.161880,72.801193 140.874329,65.592094 
	C136.453796,63.164021 132.844513,59.927528 126.898788,64.128784 
	C121.246513,68.122681 114.368752,63.848473 114.059425,56.849403 
	C123.418594,56.849403 132.762741,56.849403 143.654892,56.849403 
	C141.730255,51.235718 140.156204,46.644573 138.107376,41.484959 
M427.376221,75.011559 
	C428.804169,74.913559 430.232117,74.815559 431.564514,74.724121 
	C431.564514,52.499001 431.564514,30.672775 431.564514,8.740631 
	C426.962067,8.740631 422.713043,8.740631 418.317749,8.740631 
	C418.317749,30.883129 418.317749,52.731182 418.317749,75.011589 
	C421.176575,75.011589 423.798340,75.011589 427.376221,75.011559 
M283.575714,55.433575 
	C283.841980,64.620056 288.736908,70.745758 296.793304,74.293282 
	C304.203430,77.556252 311.509552,76.568428 318.751923,72.594543 
	C317.174225,69.335327 315.813568,66.524467 314.364441,63.530849 
	C308.800018,65.376404 303.570496,66.139137 299.830811,60.676224 
	C297.439728,57.183376 297.347137,53.436626 299.661011,49.899727 
	C303.393829,44.193790 308.810547,45.039848 314.365082,46.835747 
	C315.851379,43.773888 317.205536,40.984261 318.775177,37.750713 
	C311.537140,33.756134 304.396576,32.748451 297.092041,35.925346 
	C289.021820,39.435265 284.074860,45.500923 283.575714,55.433575 
M245.616165,75.000435 
	C249.056351,75.000435 252.496536,75.000435 255.975815,75.000435 
	C255.975815,61.539921 255.975815,48.649803 255.975815,35.587872 
	C251.488022,35.587872 247.278107,35.587872 242.729752,35.587872 
	C242.729752,48.217896 242.696716,60.504444 242.811600,72.789604 
	C242.818527,73.528854 244.005219,74.257065 245.616165,75.000435 
M242.567307,15.111717 
	C240.955414,18.831333 241.014603,22.712254 244.533051,24.831671 
	C246.847076,26.225592 250.807404,26.952122 253.014984,25.882185 
	C255.268356,24.790047 257.576355,21.082077 257.472870,18.619637 
	C257.368469,16.134899 254.826080,12.900716 252.463882,11.564232 
	C249.000031,9.604454 245.420471,11.124999 242.567307,15.111717 
M194.907089,97.355797 
	C196.825562,94.943947 195.613235,93.926292 193.184830,93.303650 
	C189.014221,92.234306 184.088806,94.269279 182.078842,98.099846 
	C180.036484,101.992149 180.745911,105.531769 183.840546,108.561310 
	C187.225540,111.875114 191.728302,112.119705 196.032166,108.607674 
	C194.378159,107.774452 192.444931,107.857758 190.956787,107.084518 
	C188.973999,106.054237 186.404358,104.643593 185.856049,102.854195 
	C185.439575,101.495018 187.416626,98.768051 189.023636,97.637268 
	C190.172134,96.829109 192.472168,97.657402 194.907089,97.355797 
M202.805664,105.447128 
	C204.084152,111.522789 205.335434,112.022072 215.312683,110.419662 
	C215.312683,107.029694 215.312683,103.645187 215.312683,99.867447 
	C210.754959,101.229904 204.613556,96.844307 202.805664,105.447128 
M245.188599,106.057381 
	C247.097733,106.057381 249.006851,106.057381 250.991180,106.057381 
	C250.988281,101.762238 248.919235,99.429855 245.555237,100.043976 
	C243.283569,100.458687 240.316284,102.564476 239.660431,104.568466 
	C239.146057,106.140106 241.198044,109.598320 243.011551,110.623711 
	C245.347260,111.944366 248.687241,111.952194 250.561066,107.606537 
	C248.574646,107.806908 247.198013,108.155060 245.890564,107.981636 
	C245.312729,107.904984 244.875153,106.771049 245.188599,106.057381 
M229.245834,100.156548 
	C227.538834,100.156548 225.831833,100.156548 224.095886,100.156548 
	C224.095886,104.018272 224.095886,107.419334 224.095886,110.820396 
	C224.585953,111.038780 225.076019,111.257156 225.566086,111.475540 
	C226.272751,110.220627 227.360184,109.034073 227.600479,107.695427 
	C228.002151,105.457893 227.327194,102.818924 231.087524,103.067513 
	C231.633957,103.103638 232.270218,101.780830 232.864914,101.086853 
	C231.952957,100.705376 231.040985,100.323906 229.245834,100.156548 
z"/>
<path fill="#2E2E2E" opacity="1.000000" stroke="none" 
	d="
M36.845329,74.480011 
	C32.164490,62.513737 27.867228,50.684052 23.569965,38.854370 
	C23.295609,38.850887 23.021252,38.847404 22.746895,38.843922 
	C21.766064,50.649342 20.785234,62.454765 19.773460,74.632645 
	C15.071579,74.632645 10.353514,74.632645 5.257186,74.632645 
	C7.152137,53.525898 9.036222,32.540195 10.959098,11.122415 
	C15.553020,11.122415 19.886885,10.818283 24.132370,11.297355 
	C25.506134,11.452374 27.194780,13.442242 27.808077,14.967316 
	C32.079372,25.588699 36.105732,36.308582 40.555351,47.894566 
	C44.891766,36.690353 49.111961,26.408508 52.796589,15.938190 
	C54.136322,12.131182 55.877895,10.575035 59.917099,11.041048 
	C63.175117,11.416932 66.511078,11.117197 70.173019,11.117197 
	C72.101067,32.493843 73.994476,53.486568 75.913040,74.758171 
	C70.969925,74.758171 66.381958,74.758171 61.392178,74.758171 
	C60.404175,62.830181 59.424580,51.003654 58.444981,39.177132 
	C58.094082,39.137733 57.743187,39.098335 57.392288,39.058941 
	C54.001965,48.668205 50.091858,58.135475 47.413635,67.939270 
	C45.771572,73.950142 42.770245,75.655479 36.845329,74.480011 
z"/>
<path fill="#2F2F2F" opacity="1.000000" stroke="none" 
	d="
M199.138931,15.157341 
	C199.138931,12.857464 199.138931,11.035699 199.138931,8.835697 
	C203.772705,8.835697 208.155640,8.835697 212.755371,8.835697 
	C212.755371,30.748699 212.755371,52.501381 212.755371,74.264526 
	C204.954620,76.285103 200.038620,75.406425 198.746185,71.193893 
	C193.952835,75.698212 188.112152,77.316223 182.204544,75.624481 
	C178.278198,74.500099 174.228302,72.034996 171.445831,69.042847 
	C164.864136,61.965237 164.958878,49.504154 170.863190,41.775852 
	C177.240326,33.428661 186.541626,32.088078 199.138931,38.086353 
	C199.138931,30.412794 199.138931,23.024124 199.138931,15.157341 
M199.286209,56.903702 
	C199.419250,50.403427 196.825882,46.671280 191.712570,46.004402 
	C186.732498,45.354908 182.333557,48.338753 181.249634,53.101562 
	C180.198486,57.720333 182.786926,62.583447 187.015182,63.933796 
	C192.483627,65.680222 196.696442,63.498085 199.286209,56.903702 
z"/>
<path fill="#2E2E2E" opacity="1.000000" stroke="none" 
	d="
M374.850739,72.014526 
	C370.521698,73.120377 366.332428,75.509644 361.968292,75.889473 
	C353.481201,76.628143 346.559906,71.468109 343.492493,63.469498 
	C340.145081,54.740749 342.461670,44.627903 349.150177,38.771320 
	C355.250854,33.429482 363.965485,32.614697 371.500732,36.689838 
	C372.349365,37.148785 373.175507,37.649399 373.829407,38.025612 
	C377.915741,32.513821 383.273712,36.555874 388.099426,34.931381 
	C388.099426,48.534130 388.099426,61.450504 388.099426,74.997993 
	C384.345367,74.997993 380.583160,75.129570 376.846375,74.880318 
	C376.149170,74.833817 375.553864,73.259270 374.850739,72.014526 
M373.786102,60.065071 
	C374.139130,59.138542 374.651733,58.239605 374.817566,57.280701 
	C375.529663,53.163410 374.594086,49.085663 370.739227,47.516972 
	C367.889130,46.357170 363.860596,46.339180 360.978149,47.439522 
	C357.020569,48.950275 355.693848,53.251957 357.044098,57.095749 
	C357.963989,59.714516 360.285645,62.631687 362.737457,63.738331 
	C366.523346,65.447090 370.570496,64.448334 373.786102,60.065071 
z"/>
<path fill="#2F2F2F" opacity="1.000000" stroke="none" 
	d="
M138.344757,41.769192 
	C140.156204,46.644573 141.730255,51.235718 143.654892,56.849403 
	C132.762741,56.849403 123.418594,56.849403 114.059425,56.849403 
	C114.368752,63.848473 121.246513,68.122681 126.898788,64.128784 
	C132.844513,59.927528 136.453796,63.164021 140.874329,65.592094 
	C138.161880,72.801193 129.723114,76.788086 118.836349,76.022171 
	C109.588074,75.371536 101.547226,68.270378 99.703629,59.125420 
	C97.883659,50.097595 102.294685,41.160152 110.787704,36.667320 
	C119.773613,31.913750 130.673843,33.835930 138.344757,41.769192 
M120.593124,49.593586 
	C123.307198,49.593586 126.021263,49.593586 129.019302,49.593586 
	C127.683220,44.424038 124.746002,42.735466 120.633820,43.066284 
	C117.039780,43.355415 114.533295,45.084225 113.980423,49.593296 
	C116.139198,49.593296 117.917801,49.593296 120.593124,49.593586 
z"/>
<path fill="#303030" opacity="1.000000" stroke="none" 
	d="
M426.898193,75.011574 
	C423.798340,75.011589 421.176575,75.011589 418.317749,75.011589 
	C418.317749,52.731182 418.317749,30.883129 418.317749,8.740631 
	C422.713043,8.740631 426.962067,8.740631 431.564514,8.740631 
	C431.564514,30.672775 431.564514,52.499001 431.564514,74.724121 
	C430.232117,74.815559 428.804169,74.913559 426.898193,75.011574 
z"/>
<path fill="#2F2F2F" opacity="1.000000" stroke="none" 
	d="
M283.577576,55.032253 
	C284.074860,45.500923 289.021820,39.435265 297.092041,35.925346 
	C304.396576,32.748451 311.537140,33.756134 318.775177,37.750713 
	C317.205536,40.984261 315.851379,43.773888 314.365082,46.835747 
	C308.810547,45.039848 303.393829,44.193790 299.661011,49.899727 
	C297.347137,53.436626 297.439728,57.183376 299.830811,60.676224 
	C303.570496,66.139137 308.800018,65.376404 314.364441,63.530849 
	C315.813568,66.524467 317.174225,69.335327 318.751923,72.594543 
	C311.509552,76.568428 304.203430,77.556252 296.793304,74.293282 
	C288.736908,70.745758 283.841980,64.620056 283.577576,55.032253 
z"/>
<path fill="#2D2D2C" opacity="1.000000" stroke="none" 
	d="
M245.129547,74.995422 
	C244.005219,74.257065 242.818527,73.528854 242.811600,72.789604 
	C242.696716,60.504444 242.729752,48.217896 242.729752,35.587872 
	C247.278107,35.587872 251.488022,35.587872 255.975815,35.587872 
	C255.975815,48.649803 255.975815,61.539921 255.975815,75.000435 
	C252.496536,75.000435 249.056351,75.000435 245.129547,74.995422 
z"/>
<path fill="#303030" opacity="1.000000" stroke="none" 
	d="
M242.764267,14.791577 
	C245.420471,11.124999 249.000031,9.604454 252.463882,11.564232 
	C254.826080,12.900716 257.368469,16.134899 257.472870,18.619637 
	C257.576355,21.082077 255.268356,24.790047 253.014984,25.882185 
	C250.807404,26.952122 246.847076,26.225592 244.533051,24.831671 
	C241.014603,22.712254 240.955414,18.831333 242.764267,14.791577 
z"/>
<path fill="#383737" opacity="1.000000" stroke="none" 
	d="
M194.582733,97.555649 
	C192.472168,97.657402 190.172134,96.829109 189.023636,97.637268 
	C187.416626,98.768051 185.439575,101.495018 185.856049,102.854195 
	C186.404358,104.643593 188.973999,106.054237 190.956787,107.084518 
	C192.444931,107.857758 194.378159,107.774452 196.032166,108.607674 
	C191.728302,112.119705 187.225540,111.875114 183.840546,108.561310 
	C180.745911,105.531769 180.036484,101.992149 182.078842,98.099846 
	C184.088806,94.269279 189.014221,92.234306 193.184830,93.303650 
	C195.613235,93.926292 196.825562,94.943947 194.582733,97.555649 
z"/>
<path fill="#3B3B3A" opacity="1.000000" stroke="none" 
	d="
M202.830414,105.038025 
	C204.613556,96.844307 210.754959,101.229904 215.312683,99.867447 
	C215.312683,103.645187 215.312683,107.029694 215.312683,110.419662 
	C205.335434,112.022072 204.084152,111.522789 202.830414,105.038025 
z"/>
<path fill="#353535" opacity="1.000000" stroke="none" 
	d="
M244.781250,106.087234 
	C244.875153,106.771049 245.312729,107.904984 245.890564,107.981636 
	C247.198013,108.155060 248.574646,107.806908 250.561066,107.606537 
	C248.687241,111.952194 245.347260,111.944366 243.011551,110.623711 
	C241.198044,109.598320 239.146057,106.140106 239.660431,104.568466 
	C240.316284,102.564476 243.283569,100.458687 245.555237,100.043976 
	C248.919235,99.429855 250.988281,101.762238 250.991180,106.057381 
	C249.006851,106.057381 247.097733,106.057381 244.781250,106.087234 
z"/>
<path fill="#383838" opacity="1.000000" stroke="none" 
	d="
M229.687439,100.049484 
	C231.040985,100.323906 231.952957,100.705376 232.864914,101.086853 
	C232.270218,101.780830 231.633957,103.103638 231.087524,103.067513 
	C227.327194,102.818924 228.002151,105.457893 227.600479,107.695427 
	C227.360184,109.034073 226.272751,110.220627 225.566086,111.475540 
	C225.076019,111.257156 224.585953,111.038780 224.095886,110.820396 
	C224.095886,107.419334 224.095886,104.018272 224.095886,100.156548 
	C225.831833,100.156548 227.538834,100.156548 229.687439,100.049484 
z"/>
<path fill="#E0DED9" opacity="1.000000" stroke="none" 
	d="
M199.218842,57.275597 
	C196.696442,63.498085 192.483627,65.680222 187.015182,63.933796 
	C182.786926,62.583447 180.198486,57.720333 181.249634,53.101562 
	C182.333557,48.338753 186.732498,45.354908 191.712570,46.004402 
	C196.825882,46.671280 199.419250,50.403427 199.218842,57.275597 
z"/>
<path fill="#E0DED9" opacity="1.000000" stroke="none" 
	d="
M373.556274,60.387901 
	C370.570496,64.448334 366.523346,65.447090 362.737457,63.738331 
	C360.285645,62.631687 357.963989,59.714516 357.044098,57.095749 
	C355.693848,53.251957 357.020569,48.950275 360.978149,47.439522 
	C363.860596,46.339180 367.889130,46.357170 370.739227,47.516972 
	C374.594086,49.085663 375.529663,53.163410 374.817566,57.280701 
	C374.651733,58.239605 374.139130,59.138542 373.556274,60.387901 
z"/>
<path fill="#CDCBC7" opacity="1.000000" stroke="none" 
	d="
M120.144768,49.593441 
	C117.917801,49.593296 116.139198,49.593296 113.980423,49.593296 
	C114.533295,45.084225 117.039780,43.355415 120.633820,43.066284 
	C124.746002,42.735466 127.683220,44.424038 129.019302,49.593586 
	C126.021263,49.593586 123.307198,49.593586 120.144768,49.593441 
z"/>
</svg>